<?xml version="1.0" encoding="iso-8859-1"?>
<!-- Generator: Adobe Illustrator 16.0.0, SVG Export Plug-In . SVG Version: 6.00 Build 0)  -->
<!DOCTYPE svg PUBLIC "-//W3C//DTD SVG 1.1//EN" "http://www.w3.org/Graphics/SVG/1.1/DTD/svg11.dtd">
<svg version="1.1" id="Capa_1" xmlns="http://www.w3.org/2000/svg" xmlns:xlink="http://www.w3.org/1999/xlink" x="0px" y="0px"
	 width="94px" height="94px" viewBox="0 0 94 94" style="enable-background:new 0 0 94 94;" xml:space="preserve">
<g>
	<path d="M94,89c0,2.761-2.238,5-5,5H5c-2.761,0-5-2.239-5-5V5c0-2.761,2.239-5,5-5h84c2.762,0,5,2.239,5,5V89z M65.992,25.904
		c-7.574,0-14.159,4.483-17.523,11.082l10.42,10.78c-0.023-0.256-0.037-0.516-0.037-0.778c0-4.153,3.178-7.52,7.096-7.52
		c3.919,0,7.095,3.366,7.095,7.52c0,4.155-3.176,7.52-7.095,7.52c-1.715,0-3.287-0.644-4.514-1.718L42.233,32.246
		c-3.612-3.911-8.651-6.338-14.224-6.338c-10.993,0-19.905,9.444-19.905,21.094c0,11.65,8.912,21.094,19.905,21.094
		c7.578,0,14.165-4.486,17.528-11.09l-10.32-10.675c0.023,0.245,0.036,0.495,0.036,0.747c0,4.152-3.177,7.52-7.096,7.52
		c-3.918,0-7.095-3.365-7.095-7.52s3.177-7.521,7.095-7.521c1.769,0,3.385,0.688,4.627,1.822l19.17,20.572
		c3.599,3.795,8.56,6.14,14.037,6.14c10.993,0,19.905-9.444,19.905-21.094C85.896,35.347,76.984,25.904,65.992,25.904z"/>
</g>
<g>
</g>
<g>
</g>
<g>
</g>
<g>
</g>
<g>
</g>
<g>
</g>
<g>
</g>
<g>
</g>
<g>
</g>
<g>
</g>
<g>
</g>
<g>
</g>
<g>
</g>
<g>
</g>
<g>
</g>
</svg>
